<?xml version="1.0" encoding="UTF-8"?>
<svg id="Layer_1" data-name="Layer 1" xmlns="http://www.w3.org/2000/svg" viewBox="0 0 1433.85 280.82">
  <defs>
    <style>
      .cls-1 {
        fill: #e37526;
      }

      .cls-2 {
        fill: #ff7e15;
      }

      .cls-3 {
        fill: #00ffd9;
      }
    </style>
  </defs>
  <polygon class="cls-3" points="4.16 280.82 1366.36 280.82 1433.85 56.93 43.5 56.93 4.16 280.82"/>
  <path d="M39.34,56.93h158.32l-6.4,36.78h-114.82l-10.87,62.05h99.47l-6.4,36.78H59.17l-15.67,88.28H0L39.34,56.93Z"/>
  <path d="M217.54,56.93h43.5l-32.94,187.11h111.63l-6.4,36.78h-155.12l39.34-223.89Z"/>
  <path d="M356.35,241.16l26.55-150,39.98-34.22h115.14l32.62,39.34-26.87,151.6-39.02,32.94h-115.78l-32.62-39.66ZM484.61,243.72l19.19-16.31,20.79-117.06-13.43-16.31h-68.77l-19.19,16.31-21.11,117.06,13.43,16.31h69.09Z"/>
  <path d="M594.04,56.93h42.86l-.64,158h1.28l72.28-158h32.62l15.67,158h1.28l55.01-158h44.78l-85.72,223.89h-40.62l-16.95-157.36h-1.28l-72.92,157.36h-40.62l-7.04-223.89Z"/>
  <path d="M1066.35,56.93h28.79l110.99,173.35h.64V56.93h29.43v223.89h-28.79l-110.99-173.35h-.64v173.35h-29.43V56.93Z"/>
  <path d="M1335.66,83.48h-67.49v-26.55h165.68l-8,26.55h-59.49v197.34h-30.7V83.48Z"/>
  <g>
    <path d="M1027.97,280.82v-36.73h-119.62l-23.48,36.73h143.1ZM997.7,262.3c0-2.45.97-4.8,2.71-6.54,1.73-1.73,4.09-2.71,6.54-2.71h.79c2.45,0,4.8.97,6.54,2.71h0c1.73,1.73,2.71,4.09,2.71,6.54v.31c0,2.45-.97,4.8-2.71,6.54h0c-1.73,1.74-4.08,2.71-6.54,2.71h-.78c-2.45,0-4.8-.97-6.54-2.71h0c-1.73-1.73-2.71-4.09-2.71-6.54v-.31ZM956.17,262.3c0-2.45.97-4.8,2.71-6.54,1.73-1.73,4.09-2.71,6.54-2.71h.79c2.45,0,4.8.97,6.54,2.71h0c1.73,1.73,2.71,4.09,2.71,6.54v.31c0,2.45-.97,4.8-2.71,6.54h0c-1.73,1.74-4.08,2.71-6.54,2.71h-.78c-2.45,0-4.8-.97-6.54-2.71h0c-1.73-1.73-2.71-4.09-2.71-6.54v-.31ZM914.65,262.3c0-2.45.97-4.8,2.71-6.54,1.73-1.73,4.08-2.71,6.54-2.71h.79c2.45,0,4.8.97,6.53,2.71h0c1.73,1.73,2.71,4.09,2.71,6.54v.31c0,2.45-.97,4.8-2.71,6.54h0c-1.73,1.74-4.09,2.71-6.54,2.71h-.78c-2.45,0-4.8-.97-6.54-2.71h0c-1.73-1.73-2.71-4.09-2.71-6.54v-.31Z"/>
    <polygon points="1027.97 83.8 1027.97 56.93 1027.97 56.93 1010.8 83.8 1027.97 83.8"/>
    <polygon points="1018.7 181.67 1018.7 155.13 965.21 155.13 948.24 181.67 1018.7 181.67"/>
    <polygon points="908.35 181.67 941.02 181.67 957.99 155.13 908.35 155.13 908.35 83.8 1003.57 83.8 1020.75 56.93 877.65 56.93 877.65 280.82 908.35 232.79 908.35 181.67"/>
  </g>
  <polygon class="cls-2" points="877.65 280.82 877.65 280.82 884.87 280.82 884.87 280.82 877.65 280.82 877.65 280.82"/>
  <polygon class="cls-3" points="1010.8 83.8 1027.97 56.93 1020.75 56.93 1003.57 83.8 1010.8 83.8"/>
  <polygon class="cls-1" points="941.02 181.67 948.24 181.67 965.21 155.13 957.99 155.13 941.02 181.67"/>
  <polygon class="cls-3" points="877.65 280.82 877.65 280.82 884.87 280.82 908.35 244.09 908.35 232.79 877.65 280.82"/>
  <g>
    <path d="M895.81,5.37h-14.07V.93h33.18v4.45h-14.07v42h-5.04V5.37Z"/>
    <path d="M924.21,41.27v-20.84l6.1-6.1h16.65l6.17,6.1v11.88h-24.02v7.43l3.32,3.25h12.41l3.32-3.25v-2.52h4.91v4.05l-6.11,6.1h-16.65l-6.1-6.1ZM948.23,28.07v-6.11l-3.32-3.25h-12.47l-3.32,3.25v6.11h19.11Z"/>
    <path d="M970.39,41.27v-20.84l6.1-6.1h15.93l6.1,6.1v4.05h-4.91v-2.52l-3.32-3.25h-11.68l-3.32,3.25v17.78l3.32,3.25h11.68l3.32-3.25v-2.52h4.91v4.05l-6.1,6.1h-15.93l-6.1-6.1Z"/>
    <path d="M1015.45,0h4.91v21.23l6.9-6.9h10.29l6.1,6.1v26.94h-4.91v-25.41l-3.32-3.25h-6.83l-8.23,8.23v20.44h-4.91V0Z"/>
    <path d="M1086.71,41.27v-4.25h4.98v2.59l3.18,3.25h15.93l3.32-3.38v-10.42l-3.32-3.25h-17.85l-6.11-6.1V7.03l6.11-6.1h19.51l6.1,6.1v4.31h-4.91v-2.65l-3.32-3.25h-15.2l-3.32,3.25v9.36l3.32,3.25h17.85l6.1,6.11v13.74l-6.24,6.24h-20.04l-6.1-6.1Z"/>
    <path d="M1136.01,41.27v-20.84l6.1-6.1h16.99l6.11,6.1v20.84l-6.11,6.1h-16.99l-6.1-6.1ZM1156.98,43l3.32-3.25v-17.78l-3.32-3.25h-12.74l-3.32,3.25v17.78l3.32,3.25h12.74Z"/>
    <path d="M1183.79,0h4.91v47.38h-4.91V0Z"/>
    <path d="M1207.61,41.27V14.33h4.91v25.41l3.32,3.25h6.64l8.23-8.23V14.33h4.91v33.04h-4.78v-7.03l-7.03,7.03h-10.09l-6.11-6.1Z"/>
    <path d="M1257.51,41.27v-22.63h-5.97v-4.31h6.1V3.58h4.78v10.75h10.35v4.31h-10.35v21.1l3.32,3.32h7.03v4.31h-9.16l-6.11-6.1Z"/>
    <path d="M1289.03,6.77v-2.92l1.99-1.99h2.92l1.99,1.99v2.92l-1.99,1.99h-2.92l-1.99-1.99ZM1290.02,14.33h4.91v33.04h-4.91V14.33Z"/>
    <path d="M1313.85,41.27v-20.84l6.1-6.1h16.99l6.11,6.1v20.84l-6.11,6.1h-16.99l-6.1-6.1ZM1334.81,43l3.32-3.25v-17.78l-3.32-3.25h-12.74l-3.32,3.25v17.78l3.32,3.25h12.74Z"/>
    <path d="M1361.29,14.33h4.78v7.03l7.03-7.03h10.15l6.1,6.1v26.94h-4.91v-25.41l-3.32-3.25h-6.7l-8.23,8.23v20.44h-4.91V14.33Z"/>
    <path d="M1406.28,41.94v-4.11h4.91v2.72l2.65,2.59h12.21l2.65-2.59v-5.11l-2.65-2.65h-14.27l-5.24-5.24v-7.76l5.44-5.44h15.53l5.44,5.44v4.11h-4.91v-2.72l-2.65-2.59h-11.28l-2.65,2.59v4.84l2.65,2.65h14.07l5.44,5.44v7.83l-5.44,5.44h-16.46l-5.44-5.44Z"/>
  </g>
</svg>